<?xml version="1.0" encoding="UTF-8" standalone="no"?><!DOCTYPE svg PUBLIC "-//W3C//DTD SVG 1.1//EN" "http://www.w3.org/Graphics/SVG/1.1/DTD/svg11.dtd"><svg width="100%" height="100%" viewBox="0 0 480 480" version="1.1" xmlns="http://www.w3.org/2000/svg" xmlns:xlink="http://www.w3.org/1999/xlink" xml:space="preserve" xmlns:serif="http://www.serif.com/" style="fill-rule:evenodd;clip-rule:evenodd;stroke-linejoin:round;stroke-miterlimit:2;"><g><g transform="matrix(249.487674,0,0,249.487674,7.425176,324.975892)"><path d="M0.301,0.012c-0.057,0 -0.109,-0.006 -0.155,-0.019c-0.046,-0.013 -0.085,-0.029 -0.118,-0.047l0,-0.191c0.05,0.034 0.101,0.061 0.15,0.08c0.05,0.019 0.095,0.028 0.136,0.028c0.026,0 0.045,-0.004 0.057,-0.012c0.012,-0.008 0.019,-0.018 0.019,-0.032c0,-0.014 -0.007,-0.025 -0.02,-0.033c-0.013,-0.008 -0.031,-0.015 -0.052,-0.021c-0.022,-0.006 -0.046,-0.012 -0.072,-0.018c-0.026,-0.006 -0.053,-0.014 -0.079,-0.023c-0.026,-0.009 -0.05,-0.022 -0.072,-0.037c-0.022,-0.016 -0.039,-0.035 -0.052,-0.059c-0.013,-0.024 -0.02,-0.054 -0.02,-0.091c0,-0.046 0.012,-0.086 0.035,-0.12c0.023,-0.034 0.057,-0.061 0.102,-0.08c0.045,-0.019 0.098,-0.029 0.162,-0.029c0.046,0 0.087,0.005 0.124,0.015c0.037,0.01 0.068,0.025 0.094,0.044c0.015,0.012 0.027,0.024 0.036,0.038c0.009,0.014 0.013,0.029 0.013,0.048c0,0.024 -0.007,0.043 -0.022,0.058c-0.015,0.015 -0.036,0.023 -0.063,0.023c-0.02,-0 -0.038,-0.004 -0.054,-0.012c-0.016,-0.008 -0.031,-0.017 -0.046,-0.027c-0.015,-0.01 -0.031,-0.019 -0.047,-0.027c-0.017,-0.008 -0.035,-0.011 -0.057,-0.011c-0.022,0 -0.038,0.004 -0.049,0.013c-0.011,0.009 -0.016,0.019 -0.016,0.032c0,0.014 0.007,0.025 0.02,0.033c0.013,0.008 0.031,0.016 0.052,0.022c0.022,0.006 0.046,0.013 0.072,0.019c0.026,0.007 0.053,0.015 0.079,0.024c0.026,0.009 0.05,0.022 0.072,0.037c0.022,0.015 0.039,0.035 0.052,0.059c0.013,0.024 0.02,0.053 0.02,0.089c0,0.045 -0.011,0.084 -0.033,0.118c-0.022,0.034 -0.055,0.061 -0.099,0.08c-0.044,0.019 -0.1,0.029 -0.168,0.029Z" style="fill:#e11709;fill-rule:nonzero;"/></g><g transform="matrix(249.487674,0,0,249.487674,161.109583,324.975892)"></g><g transform="matrix(249.487674,0,0,249.487674,135.244488,324.675727)"><path d="M0.012,-0l0.214,-0.56c0.016,-0.043 0.037,-0.075 0.063,-0.098c0.026,-0.023 0.057,-0.034 0.095,-0.034c0.037,0 0.068,0.011 0.094,0.034c0.026,0.022 0.047,0.055 0.063,0.098l0.215,0.56l-0.218,-0l-0.174,-0.506l0.036,0l-0.172,0.506l-0.216,-0Zm0.181,-0.094l0,-0.171l0.39,0l0,0.171l-0.39,0Z" style="fill:#e11709;fill-rule:nonzero;"/></g><g transform="matrix(249.487674,0,0,249.487674,326.851022,324.675727)"></g><g transform="matrix(249.487674,0,0,249.487674,294.838246,324.375562)"><path d="M0.052,-0l0,-0.546c0,-0.047 0.012,-0.082 0.035,-0.107c0.024,-0.025 0.054,-0.037 0.093,-0.037c0.026,0 0.051,0.007 0.074,0.02c0.023,0.014 0.045,0.037 0.067,0.07l0.262,0.387l-0.086,0.005l0,-0.472l0.192,0l0,0.68l-0.197,-0l-0.323,-0.469l0.075,-0.006l0,0.475l-0.192,-0Z" style="fill:#e11709;fill-rule:nonzero;"/></g><g transform="matrix(249.487674,0,0,249.487674,479.708612,324.375562)"></g></g></svg>